<svg width="16" height="16" viewBox="0 0 16 16" fill="none" xmlns="http://www.w3.org/2000/svg">
<path d="M8.46498 2.33325L7.53535 2.33325C7.05897 2.33325 6.82078 2.33325 6.60715 2.40792C6.4767 2.45351 6.35413 2.51911 6.24382 2.60236C6.0632 2.73869 5.93108 2.93688 5.66683 3.33325L5.66682 3.33326C5.53148 3.53627 5.332 3.8355 5.25249 3.91906C5.05546 4.1261 4.79713 4.26436 4.51557 4.31344C4.40193 4.33325 4.27994 4.33325 4.03596 4.33325H4.03595H4.03595C3.38257 4.33325 3.05588 4.33325 2.78876 4.40887C2.12053 4.59802 1.59827 5.12029 1.40911 5.78851C1.3335 6.05563 1.3335 6.38233 1.3335 7.03571L1.3335 9.66658C1.3335 11.5522 1.3335 12.495 1.91928 13.0808C2.50507 13.6666 3.44788 13.6666 5.3335 13.6666H10.6668C12.5524 13.6666 13.4953 13.6666 14.081 13.0808C14.6668 12.495 14.6668 11.5522 14.6668 9.66659V9.66658V7.03571C14.6668 6.38233 14.6668 6.05563 14.5912 5.78851C14.4021 5.12029 13.8798 4.59802 13.2116 4.40887C12.9444 4.33325 12.6178 4.33325 11.9644 4.33325C11.7204 4.33325 11.5984 4.33325 11.4848 4.31344C11.2032 4.26436 10.9449 4.1261 10.7478 3.91906C10.6683 3.8355 10.4688 3.53627 10.3335 3.33327L10.3335 3.33325C10.0692 2.93688 9.93712 2.73869 9.7565 2.60236C9.6462 2.51911 9.52363 2.45351 9.39317 2.40792C9.17955 2.33325 8.94136 2.33325 8.46498 2.33325Z" stroke="white" stroke-linecap="round" stroke-linejoin="round"/>
<path d="M10.6668 8.66667C10.6668 10.1394 9.47292 11.3333 8.00016 11.3333C6.5274 11.3333 5.3335 10.1394 5.3335 8.66667C5.3335 7.1939 6.5274 6 8.00016 6C9.47292 6 10.6668 7.1939 10.6668 8.66667Z" stroke="white" stroke-linecap="round" stroke-linejoin="round"/>
<path d="M12.6665 6.33325V6.33992" stroke="white" stroke-linecap="round" stroke-linejoin="round"/>
</svg>
