<svg width="187" height="128" viewBox="0 0 187 128" fill="none" xmlns="http://www.w3.org/2000/svg">
<path d="M23.2716 0.199723C30.9821 -0.406548 38.0986 0.916351 43.8305 6.33733C46.9304 9.26865 48.3324 10.8728 52.2331 12.5808C59.0643 10.2025 61.1324 3.68704 69.1637 1.42259C78.357 -1.16974 84.3538 -0.165197 92.5357 3.9956L139.177 27.8955L153.185 35.0602C159.3 38.1775 164.712 40.5428 170.007 45.0907C176.574 50.775 181.457 58.1519 184.124 66.4182C187.917 78.5238 186.73 91.6418 180.825 102.87C174.164 115.789 163.791 122.456 150.398 126.717C149.026 127.014 147.645 127.269 146.257 127.482C131.179 129.674 115.963 124.517 105.325 113.608C102.461 110.632 100.623 107.362 97.8455 104.453C96.0934 103.067 94.4207 105.474 93.6906 106.558C86.4526 117.308 74.9663 125.171 61.9731 127.391C49.4884 129.407 36.7146 126.371 26.4726 118.953C16.3221 111.648 9.49539 100.605 7.49901 88.2603C6.41905 81.8086 5.91599 74.368 4.99269 67.7382C3.69203 58.836 2.52421 49.915 1.49029 40.9781C0.949917 36.6815 0.129824 31.9798 0.0115341 27.6711C-0.383825 13.2545 9.42474 2.45809 23.2716 0.199723ZM140.444 118.798C161.441 118.121 177.9 100.529 177.18 79.5339C176.46 58.539 158.835 42.1158 137.841 42.8787C116.909 43.6392 100.543 61.2028 101.261 82.137C101.979 103.071 119.509 119.473 140.444 118.798ZM56.0261 118.735C76.8851 117.674 92.9631 99.9518 91.9945 79.0882C91.026 58.2247 73.3753 42.0687 52.5075 42.9448C31.509 43.8266 15.2292 61.6122 16.2038 82.6068C17.1784 103.601 35.036 119.802 56.0261 118.735Z" fill="black"/>
<path d="M143.892 72.4422C152.773 70.8198 161.273 76.7491 162.818 85.6442C164.363 94.5392 158.36 102.988 149.452 104.455C140.653 105.904 132.33 99.9904 130.804 91.2043C129.278 82.4183 135.119 74.0446 143.892 72.4422Z" fill="black"/>
<path d="M58.7821 72.444C67.5642 70.8612 75.9779 76.6622 77.6212 85.4332C79.2646 94.2044 73.5218 102.658 64.7623 104.361C55.917 106.082 47.3625 100.271 45.703 91.4136C44.0437 82.5566 49.914 74.0424 58.7821 72.444Z" fill="black"/>
</svg>
