<svg width="372" height="69" viewBox="0 0 372 69" fill="none" xmlns="http://www.w3.org/2000/svg">
<g filter="url(#filter0_i_689_501)">
<g clip-path="url(#clip0_689_501)">
<rect x="1" width="370" height="68" rx="24" fill="#F9F9F9"/>
<path d="M40.8777 17.4965L39.8545 18.0901C39.031 18.5678 38.6192 18.8067 38.3929 19.204C38.1665 19.6014 38.1665 20.0853 38.1665 21.0531V27.8569C38.1665 29.1285 38.1665 29.7643 38.4517 30.1182C38.6415 30.3536 38.9075 30.5119 39.2015 30.5644C39.6434 30.6433 40.1844 30.3294 41.2664 29.7018C42.0011 29.2755 42.7083 28.8329 43.5872 28.9529C43.9871 29.0075 44.3684 29.1971 45.1312 29.5764L48.3094 31.1567C48.9969 31.4985 49.0031 31.5 49.7676 31.5H51.4998C53.0712 31.5 53.8569 31.5 54.345 31.0011C54.8332 30.5021 54.8332 29.6991 54.8332 28.0931V22.4762C54.8332 20.8702 54.8332 20.0672 54.345 19.5682C53.8569 19.0693 53.0712 19.0693 51.4998 19.0693H49.7676C49.0031 19.0693 48.9969 19.0678 48.3094 18.726L45.5331 17.3455C44.3739 16.7691 43.7943 16.4809 43.1768 16.501C42.5594 16.521 41.9988 16.8462 40.8777 17.4965Z" stroke="#262537" stroke-width="1.5" stroke-linecap="round" stroke-linejoin="round"/>
<path d="M43.1665 16.5L43.1665 28.5833" stroke="#262537" stroke-width="1.5" stroke-linecap="round" stroke-linejoin="round"/>
<path d="M49 19.4166L49 31.0833" stroke="#262537" stroke-width="1.5" stroke-linecap="round" stroke-linejoin="round"/>
<path d="M32.984 54V45.672H33.776L37.304 51.468H36.764L40.292 45.672H41.084V54H39.956V47.652L40.22 47.724L37.436 52.296H36.644L33.86 47.724L34.112 47.652V54H32.984ZM44.7824 54.12C44.2624 54.12 43.7904 53.992 43.3664 53.736C42.9424 53.472 42.6064 53.116 42.3584 52.668C42.1184 52.22 41.9984 51.716 41.9984 51.156C41.9984 50.596 42.1184 50.092 42.3584 49.644C42.6064 49.196 42.9384 48.84 43.3544 48.576C43.7784 48.312 44.2544 48.18 44.7824 48.18C45.2144 48.18 45.5984 48.272 45.9344 48.456C46.2784 48.632 46.5544 48.88 46.7624 49.2C46.9704 49.512 47.0864 49.876 47.1104 50.292V52.008C47.0864 52.416 46.9704 52.78 46.7624 53.1C46.5624 53.42 46.2904 53.672 45.9464 53.856C45.6104 54.032 45.2224 54.12 44.7824 54.12ZM44.9624 53.1C45.4984 53.1 45.9304 52.92 46.2584 52.56C46.5864 52.192 46.7504 51.724 46.7504 51.156C46.7504 50.764 46.6744 50.424 46.5224 50.136C46.3784 49.84 46.1704 49.612 45.8984 49.452C45.6264 49.284 45.3104 49.2 44.9504 49.2C44.5904 49.2 44.2704 49.284 43.9904 49.452C43.7184 49.62 43.5024 49.852 43.3424 50.148C43.1904 50.436 43.1144 50.768 43.1144 51.144C43.1144 51.528 43.1904 51.868 43.3424 52.164C43.5024 52.452 43.7224 52.68 44.0024 52.848C44.2824 53.016 44.6024 53.1 44.9624 53.1ZM46.6784 54V52.464L46.8824 51.072L46.6784 49.692V48.3H47.7704V54H46.6784ZM51.8428 54.12C51.4108 54.12 51.0188 54.032 50.6668 53.856C50.3228 53.672 50.0468 53.42 49.8388 53.1C49.6308 52.78 49.5148 52.416 49.4908 52.008V50.292C49.5148 49.876 49.6308 49.512 49.8388 49.2C50.0548 48.88 50.3348 48.632 50.6788 48.456C51.0308 48.272 51.4188 48.18 51.8428 48.18C52.3628 48.18 52.8308 48.312 53.2468 48.576C53.6708 48.84 54.0028 49.196 54.2428 49.644C54.4828 50.092 54.6028 50.596 54.6028 51.156C54.6028 51.716 54.4828 52.22 54.2428 52.668C54.0028 53.116 53.6708 53.472 53.2468 53.736C52.8308 53.992 52.3628 54.12 51.8428 54.12ZM48.8428 56.388V48.3H49.9228V49.8L49.7188 51.18L49.9228 52.572V56.388H48.8428ZM51.6628 53.1C52.0228 53.1 52.3388 53.016 52.6108 52.848C52.8828 52.68 53.0988 52.452 53.2588 52.164C53.4188 51.868 53.4988 51.528 53.4988 51.144C53.4988 50.768 53.4188 50.432 53.2588 50.136C53.0988 49.84 52.8828 49.612 52.6108 49.452C52.3388 49.284 52.0268 49.2 51.6748 49.2C51.3148 49.2 50.9988 49.284 50.7268 49.452C50.4548 49.612 50.2428 49.84 50.0908 50.136C49.9388 50.432 49.8628 50.772 49.8628 51.156C49.8628 51.532 49.9348 51.868 50.0788 52.164C50.2308 52.452 50.4428 52.68 50.7148 52.848C50.9948 53.016 51.3108 53.1 51.6628 53.1ZM57.1392 54.12C56.8192 54.12 56.5152 54.08 56.2272 54C55.9472 53.912 55.6872 53.792 55.4472 53.64C55.2072 53.48 54.9992 53.292 54.8232 53.076L55.5192 52.38C55.7272 52.636 55.9672 52.828 56.2392 52.956C56.5112 53.076 56.8152 53.136 57.1512 53.136C57.4872 53.136 57.7472 53.08 57.9312 52.968C58.1152 52.848 58.2072 52.684 58.2072 52.476C58.2072 52.268 58.1312 52.108 57.9792 51.996C57.8352 51.876 57.6472 51.78 57.4152 51.708C57.1832 51.628 56.9352 51.552 56.6712 51.48C56.4152 51.4 56.1712 51.3 55.9392 51.18C55.7072 51.06 55.5152 50.896 55.3632 50.688C55.2192 50.48 55.1472 50.204 55.1472 49.86C55.1472 49.516 55.2312 49.22 55.3992 48.972C55.5672 48.716 55.7992 48.52 56.0952 48.384C56.3992 48.248 56.7632 48.18 57.1872 48.18C57.6352 48.18 58.0312 48.26 58.3752 48.42C58.7272 48.572 59.0152 48.804 59.2392 49.116L58.5432 49.812C58.3832 49.604 58.1832 49.444 57.9432 49.332C57.7112 49.22 57.4472 49.164 57.1512 49.164C56.8392 49.164 56.5992 49.22 56.4312 49.332C56.2712 49.436 56.1912 49.584 56.1912 49.776C56.1912 49.968 56.2632 50.116 56.4072 50.22C56.5512 50.324 56.7392 50.412 56.9712 50.484C57.2112 50.556 57.4592 50.632 57.7152 50.712C57.9712 50.784 58.2152 50.884 58.4472 51.012C58.6792 51.14 58.8672 51.312 59.0112 51.528C59.1632 51.744 59.2392 52.028 59.2392 52.38C59.2392 52.916 59.0472 53.34 58.6632 53.652C58.2872 53.964 57.7792 54.12 57.1392 54.12Z" fill="#6E6E7A"/>
<rect x="44.5" y="36" width="4" height="4" rx="2" fill="#262537"/>
<path d="M114.833 18.1667L123.167 18.1667" stroke="#6E6E7A" stroke-width="1.5" stroke-linecap="round" stroke-linejoin="round"/>
<path d="M109.833 24L123.167 24" stroke="#6E6E7A" stroke-width="1.5" stroke-linecap="round" stroke-linejoin="round"/>
<path d="M109.833 29.8334L118.167 29.8334" stroke="#6E6E7A" stroke-width="1.5" stroke-linecap="round" stroke-linejoin="round"/>
<path d="M104.484 54V45.672H105.612V54H104.484ZM105.252 50.34V49.308H109.596V50.34H105.252ZM105.252 46.704V45.672H109.8V46.704H105.252ZM112.995 54.12C112.427 54.12 111.915 53.992 111.459 53.736C111.003 53.472 110.643 53.116 110.379 52.668C110.115 52.22 109.983 51.712 109.983 51.144C109.983 50.584 110.111 50.08 110.367 49.632C110.631 49.184 110.983 48.832 111.423 48.576C111.871 48.312 112.371 48.18 112.923 48.18C113.451 48.18 113.915 48.3 114.315 48.54C114.723 48.78 115.039 49.112 115.263 49.536C115.495 49.96 115.611 50.44 115.611 50.976C115.611 51.056 115.607 51.144 115.599 51.24C115.591 51.328 115.575 51.432 115.551 51.552H110.739V50.652H114.975L114.579 51C114.579 50.616 114.511 50.292 114.375 50.028C114.239 49.756 114.047 49.548 113.799 49.404C113.551 49.252 113.251 49.176 112.899 49.176C112.531 49.176 112.207 49.256 111.927 49.416C111.647 49.576 111.431 49.8 111.279 50.088C111.127 50.376 111.051 50.716 111.051 51.108C111.051 51.508 111.131 51.86 111.291 52.164C111.451 52.46 111.679 52.692 111.975 52.86C112.271 53.02 112.611 53.1 112.995 53.1C113.315 53.1 113.607 53.044 113.871 52.932C114.143 52.82 114.375 52.652 114.567 52.428L115.263 53.136C114.991 53.456 114.655 53.7 114.255 53.868C113.863 54.036 113.443 54.12 112.995 54.12ZM118.928 54.12C118.36 54.12 117.848 53.992 117.392 53.736C116.936 53.472 116.576 53.116 116.312 52.668C116.048 52.22 115.916 51.712 115.916 51.144C115.916 50.584 116.044 50.08 116.3 49.632C116.564 49.184 116.916 48.832 117.356 48.576C117.804 48.312 118.304 48.18 118.856 48.18C119.384 48.18 119.848 48.3 120.248 48.54C120.656 48.78 120.972 49.112 121.196 49.536C121.428 49.96 121.544 50.44 121.544 50.976C121.544 51.056 121.54 51.144 121.532 51.24C121.524 51.328 121.508 51.432 121.484 51.552H116.672V50.652H120.908L120.512 51C120.512 50.616 120.444 50.292 120.308 50.028C120.172 49.756 119.98 49.548 119.732 49.404C119.484 49.252 119.184 49.176 118.832 49.176C118.464 49.176 118.14 49.256 117.86 49.416C117.58 49.576 117.364 49.8 117.212 50.088C117.06 50.376 116.984 50.716 116.984 51.108C116.984 51.508 117.064 51.86 117.224 52.164C117.384 52.46 117.612 52.692 117.908 52.86C118.204 53.02 118.544 53.1 118.928 53.1C119.248 53.1 119.54 53.044 119.804 52.932C120.076 52.82 120.308 52.652 120.5 52.428L121.196 53.136C120.924 53.456 120.588 53.7 120.188 53.868C119.796 54.036 119.376 54.12 118.928 54.12ZM124.634 54.12C124.106 54.12 123.634 53.992 123.218 53.736C122.802 53.472 122.47 53.116 122.222 52.668C121.982 52.22 121.862 51.716 121.862 51.156C121.862 50.596 121.982 50.092 122.222 49.644C122.47 49.196 122.802 48.84 123.218 48.576C123.634 48.312 124.106 48.18 124.634 48.18C125.058 48.18 125.442 48.272 125.786 48.456C126.13 48.632 126.406 48.88 126.614 49.2C126.83 49.512 126.95 49.876 126.974 50.292V52.008C126.95 52.416 126.834 52.78 126.626 53.1C126.418 53.42 126.142 53.672 125.798 53.856C125.454 54.032 125.066 54.12 124.634 54.12ZM124.814 53.1C125.174 53.1 125.486 53.016 125.75 52.848C126.022 52.68 126.234 52.452 126.386 52.164C126.538 51.868 126.614 51.532 126.614 51.156C126.614 50.764 126.534 50.424 126.374 50.136C126.222 49.848 126.01 49.62 125.738 49.452C125.474 49.284 125.162 49.2 124.802 49.2C124.442 49.2 124.126 49.284 123.854 49.452C123.582 49.62 123.366 49.852 123.206 50.148C123.054 50.436 122.978 50.768 122.978 51.144C122.978 51.528 123.054 51.868 123.206 52.164C123.366 52.452 123.582 52.68 123.854 52.848C124.134 53.016 124.454 53.1 124.814 53.1ZM127.634 54H126.542V52.464L126.746 51.072L126.542 49.692V45.432H127.634V54Z" fill="#6E6E7A"/>
<g filter="url(#filter1_dddd_689_501)">
<rect x="151" y="10" width="70" height="48" rx="24" fill="white"/>
<rect x="153.5" y="12" width="65" height="44" rx="22" fill="#FD5F53"/>
<path d="M186.465 19.3333H185.535C185.059 19.3333 184.821 19.3333 184.607 19.4079C184.477 19.4535 184.354 19.5191 184.244 19.6024C184.063 19.7387 183.931 19.9369 183.667 20.3333L183.667 20.3333C183.531 20.5363 183.332 20.8355 183.252 20.9191C183.055 21.1261 182.797 21.2644 182.516 21.3134C182.402 21.3333 182.28 21.3333 182.036 21.3333H182.036H182.036C181.383 21.3333 181.056 21.3333 180.789 21.4089C180.121 21.598 179.598 22.1203 179.409 22.7885C179.333 23.0556 179.333 23.3823 179.333 24.0357V26.6666C179.333 28.5522 179.333 29.495 179.919 30.0808C180.505 30.6666 181.448 30.6666 183.333 30.6666H188.667C190.552 30.6666 191.495 30.6666 192.081 30.0808C192.667 29.495 192.667 28.5522 192.667 26.6666V26.6666V24.0357C192.667 23.3823 192.667 23.0556 192.591 22.7885C192.402 22.1203 191.88 21.598 191.212 21.4089C190.944 21.3333 190.618 21.3333 189.964 21.3333C189.72 21.3333 189.598 21.3333 189.485 21.3134C189.203 21.2644 188.945 21.1261 188.748 20.9191C188.668 20.8355 188.469 20.5363 188.334 20.3333L188.333 20.3333C188.069 19.9369 187.937 19.7387 187.757 19.6024C187.646 19.5191 187.524 19.4535 187.393 19.4079C187.18 19.3333 186.941 19.3333 186.465 19.3333Z" stroke="white" stroke-linecap="round" stroke-linejoin="round"/>
<path d="M188.667 25.6667C188.667 27.1394 187.473 28.3333 186 28.3333C184.527 28.3333 183.333 27.1394 183.333 25.6667C183.333 24.1939 184.527 23 186 23C187.473 23 188.667 24.1939 188.667 25.6667Z" stroke="white" stroke-linecap="round" stroke-linejoin="round"/>
<path d="M190.667 23.3333V23.3399" stroke="white" stroke-linecap="round" stroke-linejoin="round"/>
<path d="M170.729 43.436V42.296H172.853C173.277 42.296 173.605 42.188 173.837 41.972C174.077 41.748 174.197 41.44 174.197 41.048C174.197 40.696 174.081 40.4 173.849 40.16C173.617 39.92 173.289 39.8 172.865 39.8H170.729V38.6H172.925C173.453 38.6 173.917 38.708 174.317 38.924C174.717 39.132 175.025 39.42 175.241 39.788C175.465 40.148 175.577 40.56 175.577 41.024C175.577 41.512 175.465 41.936 175.241 42.296C175.025 42.656 174.717 42.936 174.317 43.136C173.917 43.336 173.453 43.436 172.925 43.436H170.729ZM169.781 47V38.6H171.161V47H169.781ZM174.389 47L171.449 43.352L172.733 42.884L176.129 47H174.389ZM178.972 47.12C178.396 47.12 177.876 46.992 177.412 46.736C176.956 46.472 176.592 46.112 176.32 45.656C176.056 45.2 175.924 44.688 175.924 44.12C175.924 43.552 176.056 43.044 176.32 42.596C176.584 42.14 176.94 41.78 177.388 41.516C177.844 41.252 178.348 41.12 178.9 41.12C179.436 41.12 179.908 41.244 180.316 41.492C180.732 41.74 181.056 42.08 181.288 42.512C181.528 42.944 181.648 43.436 181.648 43.988C181.648 44.084 181.64 44.184 181.624 44.288C181.616 44.384 181.6 44.492 181.576 44.612H176.848V43.532H180.892L180.4 43.964C180.384 43.612 180.316 43.316 180.196 43.076C180.076 42.836 179.904 42.652 179.68 42.524C179.464 42.396 179.196 42.332 178.876 42.332C178.54 42.332 178.248 42.404 178 42.548C177.752 42.692 177.56 42.896 177.424 43.16C177.288 43.416 177.22 43.724 177.22 44.084C177.22 44.444 177.292 44.76 177.436 45.032C177.58 45.304 177.784 45.516 178.048 45.668C178.312 45.812 178.616 45.884 178.96 45.884C179.256 45.884 179.528 45.832 179.776 45.728C180.032 45.624 180.248 45.472 180.424 45.272L181.264 46.124C180.984 46.452 180.644 46.7 180.244 46.868C179.844 47.036 179.42 47.12 178.972 47.12ZM185.291 47.12C184.851 47.12 184.459 47.028 184.115 46.844C183.771 46.652 183.499 46.392 183.299 46.064C183.107 45.736 183.011 45.364 183.011 44.948V43.292C183.011 42.876 183.111 42.504 183.311 42.176C183.511 41.848 183.783 41.592 184.127 41.408C184.471 41.216 184.859 41.12 185.291 41.12C185.811 41.12 186.279 41.256 186.695 41.528C187.119 41.792 187.451 42.152 187.691 42.608C187.939 43.056 188.063 43.564 188.063 44.132C188.063 44.692 187.939 45.2 187.691 45.656C187.451 46.104 187.119 46.46 186.695 46.724C186.279 46.988 185.811 47.12 185.291 47.12ZM182.207 49.4V41.24H183.527V42.788L183.299 44.192L183.527 45.584V49.4H182.207ZM185.075 45.872C185.395 45.872 185.675 45.8 185.915 45.656C186.163 45.504 186.355 45.296 186.491 45.032C186.635 44.768 186.707 44.464 186.707 44.12C186.707 43.776 186.635 43.472 186.491 43.208C186.355 42.944 186.163 42.74 185.915 42.596C185.675 42.444 185.395 42.368 185.075 42.368C184.755 42.368 184.471 42.444 184.223 42.596C183.975 42.74 183.783 42.944 183.647 43.208C183.511 43.472 183.443 43.776 183.443 44.12C183.443 44.464 183.511 44.768 183.647 45.032C183.783 45.296 183.975 45.504 184.223 45.656C184.471 45.8 184.755 45.872 185.075 45.872ZM191.308 47.12C190.748 47.12 190.24 46.988 189.784 46.724C189.328 46.452 188.964 46.088 188.692 45.632C188.428 45.176 188.296 44.668 188.296 44.108C188.296 43.548 188.428 43.044 188.692 42.596C188.964 42.148 189.328 41.792 189.784 41.528C190.24 41.256 190.748 41.12 191.308 41.12C191.876 41.12 192.388 41.252 192.844 41.516C193.3 41.78 193.66 42.14 193.924 42.596C194.196 43.044 194.332 43.548 194.332 44.108C194.332 44.668 194.196 45.176 193.924 45.632C193.66 46.088 193.3 46.452 192.844 46.724C192.388 46.988 191.876 47.12 191.308 47.12ZM191.308 45.848C191.636 45.848 191.924 45.776 192.172 45.632C192.428 45.48 192.624 45.272 192.76 45.008C192.904 44.744 192.976 44.444 192.976 44.108C192.976 43.772 192.904 43.476 192.76 43.22C192.616 42.964 192.42 42.764 192.172 42.62C191.924 42.468 191.636 42.392 191.308 42.392C190.988 42.392 190.7 42.468 190.444 42.62C190.196 42.764 190 42.964 189.856 43.22C189.72 43.476 189.652 43.772 189.652 44.108C189.652 44.444 189.72 44.744 189.856 45.008C190 45.272 190.196 45.48 190.444 45.632C190.7 45.776 190.988 45.848 191.308 45.848ZM194.929 47V41.24H196.249V47H194.929ZM196.249 43.796L195.793 43.568C195.793 42.84 195.953 42.252 196.273 41.804C196.601 41.348 197.093 41.12 197.749 41.12C198.037 41.12 198.297 41.172 198.529 41.276C198.761 41.38 198.977 41.548 199.177 41.78L198.313 42.668C198.209 42.556 198.093 42.476 197.965 42.428C197.837 42.38 197.689 42.356 197.521 42.356C197.153 42.356 196.849 42.472 196.609 42.704C196.369 42.936 196.249 43.3 196.249 43.796ZM200.204 47V38.84H201.524V47H200.204ZM198.824 42.44V41.24H202.904V42.44H198.824Z" fill="white"/>
</g>
<path d="M262.333 28.9999V21.9166C262.333 18.6949 259.721 16.0833 256.5 16.0833C253.278 16.0833 250.667 18.6949 250.667 21.9166V28.9999" stroke="#6E6E7A" stroke-width="1.5" stroke-linecap="round" stroke-linejoin="round"/>
<path d="M263.583 29H249.417" stroke="#6E6E7A" stroke-width="1.5" stroke-linecap="round" stroke-linejoin="round"/>
<path d="M257.75 30.6666C257.75 31.357 257.19 31.9166 256.5 31.9166M255.25 30.6666C255.25 31.357 255.81 31.9166 256.5 31.9166M256.5 31.9166V30.6666" stroke="#6E6E7A" stroke-width="1.5" stroke-linejoin="round"/>
<path d="M241.872 54L245.28 45.672H246.096L249.492 54H248.268L245.472 46.956H245.892L243.072 54H241.872ZM243.492 52.116V51.132H247.872V52.116H243.492ZM250.147 54V45.432H251.227V54H250.147ZM254.948 54.12C254.38 54.12 253.868 53.992 253.412 53.736C252.956 53.472 252.596 53.116 252.332 52.668C252.068 52.22 251.936 51.712 251.936 51.144C251.936 50.584 252.064 50.08 252.32 49.632C252.584 49.184 252.936 48.832 253.376 48.576C253.824 48.312 254.324 48.18 254.876 48.18C255.404 48.18 255.868 48.3 256.268 48.54C256.676 48.78 256.992 49.112 257.216 49.536C257.448 49.96 257.564 50.44 257.564 50.976C257.564 51.056 257.56 51.144 257.552 51.24C257.544 51.328 257.528 51.432 257.504 51.552H252.692V50.652H256.928L256.532 51C256.532 50.616 256.464 50.292 256.328 50.028C256.192 49.756 256 49.548 255.752 49.404C255.504 49.252 255.204 49.176 254.852 49.176C254.484 49.176 254.16 49.256 253.88 49.416C253.6 49.576 253.384 49.8 253.232 50.088C253.08 50.376 253.004 50.716 253.004 51.108C253.004 51.508 253.084 51.86 253.244 52.164C253.404 52.46 253.632 52.692 253.928 52.86C254.224 53.02 254.564 53.1 254.948 53.1C255.268 53.1 255.56 53.044 255.824 52.932C256.096 52.82 256.328 52.652 256.52 52.428L257.216 53.136C256.944 53.456 256.608 53.7 256.208 53.868C255.816 54.036 255.396 54.12 254.948 54.12ZM258.241 54V48.3H259.321V54H258.241ZM259.321 50.748L258.913 50.568C258.913 49.84 259.081 49.26 259.417 48.828C259.753 48.396 260.237 48.18 260.869 48.18C261.157 48.18 261.417 48.232 261.649 48.336C261.881 48.432 262.097 48.596 262.297 48.828L261.589 49.56C261.469 49.432 261.337 49.34 261.193 49.284C261.049 49.228 260.881 49.2 260.689 49.2C260.289 49.2 259.961 49.328 259.705 49.584C259.449 49.84 259.321 50.228 259.321 50.748ZM263.41 54V45.912H264.49V54H263.41ZM262.006 49.284V48.3H265.894V49.284H262.006ZM268.147 54.12C267.827 54.12 267.523 54.08 267.235 54C266.955 53.912 266.695 53.792 266.455 53.64C266.215 53.48 266.007 53.292 265.831 53.076L266.527 52.38C266.735 52.636 266.975 52.828 267.247 52.956C267.519 53.076 267.823 53.136 268.159 53.136C268.495 53.136 268.755 53.08 268.939 52.968C269.123 52.848 269.215 52.684 269.215 52.476C269.215 52.268 269.139 52.108 268.987 51.996C268.843 51.876 268.655 51.78 268.423 51.708C268.191 51.628 267.943 51.552 267.679 51.48C267.423 51.4 267.179 51.3 266.947 51.18C266.715 51.06 266.523 50.896 266.371 50.688C266.227 50.48 266.155 50.204 266.155 49.86C266.155 49.516 266.239 49.22 266.407 48.972C266.575 48.716 266.807 48.52 267.103 48.384C267.407 48.248 267.771 48.18 268.195 48.18C268.643 48.18 269.039 48.26 269.383 48.42C269.735 48.572 270.023 48.804 270.247 49.116L269.551 49.812C269.391 49.604 269.191 49.444 268.951 49.332C268.719 49.22 268.455 49.164 268.159 49.164C267.847 49.164 267.607 49.22 267.439 49.332C267.279 49.436 267.199 49.584 267.199 49.776C267.199 49.968 267.271 50.116 267.415 50.22C267.559 50.324 267.747 50.412 267.979 50.484C268.219 50.556 268.467 50.632 268.723 50.712C268.979 50.784 269.223 50.884 269.455 51.012C269.687 51.14 269.875 51.312 270.019 51.528C270.171 51.744 270.247 52.028 270.247 52.38C270.247 52.916 270.055 53.34 269.671 53.652C269.295 53.964 268.787 54.12 268.147 54.12Z" fill="#6E6E7A"/>
<path d="M330.667 21.0833C330.667 18.7821 328.801 16.9166 326.5 16.9166C324.199 16.9166 322.333 18.7821 322.333 21.0833C322.333 23.3845 324.199 25.25 326.5 25.25C328.801 25.25 330.667 23.3845 330.667 21.0833Z" stroke="#6E6E7A" stroke-width="1.5" stroke-linecap="round" stroke-linejoin="round"/>
<path d="M332.333 31.0833C332.333 27.8617 329.721 25.25 326.5 25.25C323.278 25.25 320.667 27.8617 320.667 31.0833" stroke="#6E6E7A" stroke-width="1.5" stroke-linecap="round" stroke-linejoin="round"/>
<path d="M312.24 50.76V49.776H314.508C314.82 49.776 315.096 49.712 315.336 49.584C315.584 49.456 315.776 49.276 315.912 49.044C316.056 48.812 316.128 48.536 316.128 48.216C316.128 47.896 316.056 47.62 315.912 47.388C315.776 47.156 315.584 46.976 315.336 46.848C315.096 46.72 314.82 46.656 314.508 46.656H312.24V45.672H314.58C315.092 45.672 315.548 45.776 315.948 45.984C316.356 46.192 316.676 46.488 316.908 46.872C317.148 47.248 317.268 47.696 317.268 48.216C317.268 48.728 317.148 49.176 316.908 49.56C316.676 49.936 316.356 50.232 315.948 50.448C315.548 50.656 315.092 50.76 314.58 50.76H312.24ZM311.484 54V45.672H312.612V54H311.484ZM318.069 54V48.3H319.149V54H318.069ZM319.149 50.748L318.741 50.568C318.741 49.84 318.909 49.26 319.245 48.828C319.581 48.396 320.065 48.18 320.697 48.18C320.985 48.18 321.245 48.232 321.477 48.336C321.709 48.432 321.925 48.596 322.125 48.828L321.417 49.56C321.297 49.432 321.165 49.34 321.021 49.284C320.877 49.228 320.709 49.2 320.517 49.2C320.117 49.2 319.789 49.328 319.533 49.584C319.277 49.84 319.149 50.228 319.149 50.748ZM324.802 54.12C324.242 54.12 323.738 53.988 323.29 53.724C322.842 53.46 322.486 53.104 322.222 52.656C321.958 52.2 321.826 51.692 321.826 51.132C321.826 50.58 321.958 50.084 322.222 49.644C322.486 49.196 322.842 48.84 323.29 48.576C323.738 48.312 324.242 48.18 324.802 48.18C325.354 48.18 325.854 48.312 326.302 48.576C326.758 48.832 327.118 49.184 327.382 49.632C327.646 50.08 327.778 50.58 327.778 51.132C327.778 51.692 327.646 52.2 327.382 52.656C327.118 53.104 326.758 53.46 326.302 53.724C325.854 53.988 325.354 54.12 324.802 54.12ZM324.802 53.076C325.162 53.076 325.482 52.992 325.762 52.824C326.042 52.656 326.262 52.428 326.422 52.14C326.582 51.844 326.662 51.508 326.662 51.132C326.662 50.764 326.578 50.436 326.41 50.148C326.25 49.86 326.03 49.636 325.75 49.476C325.478 49.308 325.162 49.224 324.802 49.224C324.442 49.224 324.122 49.308 323.842 49.476C323.562 49.636 323.342 49.86 323.182 50.148C323.022 50.436 322.942 50.764 322.942 51.132C322.942 51.508 323.022 51.844 323.182 52.14C323.342 52.428 323.562 52.656 323.842 52.824C324.122 52.992 324.442 53.076 324.802 53.076ZM329.135 54V47.268C329.135 46.892 329.215 46.56 329.375 46.272C329.543 45.976 329.775 45.744 330.071 45.576C330.367 45.4 330.707 45.312 331.091 45.312C331.387 45.312 331.647 45.364 331.871 45.468C332.095 45.564 332.303 45.7 332.495 45.876L331.787 46.584C331.683 46.496 331.575 46.432 331.463 46.392C331.351 46.344 331.227 46.32 331.091 46.32C330.811 46.32 330.595 46.408 330.443 46.584C330.291 46.752 330.215 46.98 330.215 47.268V54H329.135ZM327.731 49.284V48.3H333.143V49.284H327.731ZM332.519 54V48.3H333.611V54H332.519ZM333.059 47.7C332.867 47.7 332.707 47.636 332.579 47.508C332.451 47.372 332.387 47.204 332.387 47.004C332.387 46.812 332.451 46.652 332.579 46.524C332.707 46.388 332.867 46.32 333.059 46.32C333.267 46.32 333.431 46.388 333.551 46.524C333.679 46.652 333.743 46.812 333.743 47.004C333.743 47.204 333.679 47.372 333.551 47.508C333.431 47.636 333.267 47.7 333.059 47.7ZM334.698 54V45.432H335.778V54H334.698ZM339.498 54.12C338.93 54.12 338.418 53.992 337.962 53.736C337.506 53.472 337.146 53.116 336.882 52.668C336.618 52.22 336.486 51.712 336.486 51.144C336.486 50.584 336.614 50.08 336.87 49.632C337.134 49.184 337.486 48.832 337.926 48.576C338.374 48.312 338.874 48.18 339.426 48.18C339.954 48.18 340.418 48.3 340.818 48.54C341.226 48.78 341.542 49.112 341.766 49.536C341.998 49.96 342.114 50.44 342.114 50.976C342.114 51.056 342.11 51.144 342.102 51.24C342.094 51.328 342.078 51.432 342.054 51.552H337.242V50.652H341.478L341.082 51C341.082 50.616 341.014 50.292 340.878 50.028C340.742 49.756 340.55 49.548 340.302 49.404C340.054 49.252 339.754 49.176 339.402 49.176C339.034 49.176 338.71 49.256 338.43 49.416C338.15 49.576 337.934 49.8 337.782 50.088C337.63 50.376 337.554 50.716 337.554 51.108C337.554 51.508 337.634 51.86 337.794 52.164C337.954 52.46 338.182 52.692 338.478 52.86C338.774 53.02 339.114 53.1 339.498 53.1C339.818 53.1 340.11 53.044 340.374 52.932C340.646 52.82 340.878 52.652 341.07 52.428L341.766 53.136C341.494 53.456 341.158 53.7 340.758 53.868C340.366 54.036 339.946 54.12 339.498 54.12Z" fill="#6E6E7A"/>
</g>
<rect x="0.5" y="-0.5" width="371" height="69" rx="24.5" stroke="white" stroke-opacity="0.35" stroke-linecap="round"/>
</g>
<defs>
<filter id="filter0_i_689_501" x="0" y="-1" width="372" height="74" filterUnits="userSpaceOnUse" color-interpolation-filters="sRGB">
<feFlood flood-opacity="0" result="BackgroundImageFix"/>
<feBlend mode="normal" in="SourceGraphic" in2="BackgroundImageFix" result="shape"/>
<feColorMatrix in="SourceAlpha" type="matrix" values="0 0 0 0 0 0 0 0 0 0 0 0 0 0 0 0 0 0 127 0" result="hardAlpha"/>
<feOffset dy="4"/>
<feGaussianBlur stdDeviation="2"/>
<feComposite in2="hardAlpha" operator="arithmetic" k2="-1" k3="1"/>
<feColorMatrix type="matrix" values="0 0 0 0 0 0 0 0 0 0 0 0 0 0 0 0 0 0 0.01 0"/>
<feBlend mode="normal" in2="shape" result="effect1_innerShadow_689_501"/>
</filter>
<filter id="filter1_dddd_689_501" x="146" y="9" width="80" height="67" filterUnits="userSpaceOnUse" color-interpolation-filters="sRGB">
<feFlood flood-opacity="0" result="BackgroundImageFix"/>
<feColorMatrix in="SourceAlpha" type="matrix" values="0 0 0 0 0 0 0 0 0 0 0 0 0 0 0 0 0 0 127 0" result="hardAlpha"/>
<feOffset dy="1"/>
<feGaussianBlur stdDeviation="1"/>
<feColorMatrix type="matrix" values="0 0 0 0 0.768627 0 0 0 0 0.392157 0 0 0 0 0.392157 0 0 0 0.48 0"/>
<feBlend mode="normal" in2="BackgroundImageFix" result="effect1_dropShadow_689_501"/>
<feColorMatrix in="SourceAlpha" type="matrix" values="0 0 0 0 0 0 0 0 0 0 0 0 0 0 0 0 0 0 127 0" result="hardAlpha"/>
<feOffset dy="3"/>
<feGaussianBlur stdDeviation="1.5"/>
<feColorMatrix type="matrix" values="0 0 0 0 0.768627 0 0 0 0 0.392157 0 0 0 0 0.392157 0 0 0 0.09 0"/>
<feBlend mode="normal" in2="effect1_dropShadow_689_501" result="effect2_dropShadow_689_501"/>
<feColorMatrix in="SourceAlpha" type="matrix" values="0 0 0 0 0 0 0 0 0 0 0 0 0 0 0 0 0 0 127 0" result="hardAlpha"/>
<feOffset dy="7"/>
<feGaussianBlur stdDeviation="2"/>
<feColorMatrix type="matrix" values="0 0 0 0 0.768627 0 0 0 0 0.392157 0 0 0 0 0.392157 0 0 0 0.05 0"/>
<feBlend mode="normal" in2="effect2_dropShadow_689_501" result="effect3_dropShadow_689_501"/>
<feColorMatrix in="SourceAlpha" type="matrix" values="0 0 0 0 0 0 0 0 0 0 0 0 0 0 0 0 0 0 127 0" result="hardAlpha"/>
<feOffset dy="13"/>
<feGaussianBlur stdDeviation="2.5"/>
<feColorMatrix type="matrix" values="0 0 0 0 0.768627 0 0 0 0 0.392157 0 0 0 0 0.392157 0 0 0 0.01 0"/>
<feBlend mode="normal" in2="effect3_dropShadow_689_501" result="effect4_dropShadow_689_501"/>
<feBlend mode="normal" in="SourceGraphic" in2="effect4_dropShadow_689_501" result="shape"/>
</filter>
<clipPath id="clip0_689_501">
<rect x="1" width="370" height="68" rx="24" fill="white"/>
</clipPath>
</defs>
</svg>
