<svg width="20" height="20" viewBox="0 0 20 20" fill="none" xmlns="http://www.w3.org/2000/svg">
<path d="M4.37771 3.49653L3.35449 4.0901C2.53099 4.56781 2.11925 4.80667 1.89287 5.20402C1.6665 5.60138 1.6665 6.08527 1.6665 7.05306V13.8569C1.6665 15.1285 1.6665 15.7643 1.95172 16.1182C2.14151 16.3536 2.40747 16.5119 2.7015 16.5644C3.14339 16.6433 3.6844 16.3294 4.7664 15.7018C5.50114 15.2755 6.20826 14.8329 7.08723 14.9529C7.48705 15.0075 7.86842 15.1971 8.63117 15.5764L11.8094 17.1567C12.4969 17.4985 12.5031 17.5 13.2676 17.5H14.9998C16.5712 17.5 17.3569 17.5 17.845 17.0011C18.3332 16.5021 18.3332 15.6991 18.3332 14.0931V8.47623C18.3332 6.87019 18.3332 6.06717 17.845 5.56824C17.3569 5.0693 16.5712 5.0693 14.9998 5.0693H13.2676C12.5031 5.0693 12.4969 5.06782 11.8094 4.726L9.03307 3.34553C7.87387 2.76914 7.29427 2.48095 6.67682 2.50098C6.05937 2.52101 5.49881 2.84618 4.37771 3.49653Z" stroke="#262537" stroke-width="1.5" stroke-linecap="round" stroke-linejoin="round"/>
<path d="M6.6665 2.5L6.6665 14.5833" stroke="#262537" stroke-width="1.5" stroke-linecap="round" stroke-linejoin="round"/>
<path d="M12.5 5.41663L12.5 17.0833" stroke="#262537" stroke-width="1.5" stroke-linecap="round" stroke-linejoin="round"/>
</svg>
